<mxfile host="app.diagrams.net" modified="2023-04-08T07:04:20.533Z" agent="Mozilla/5.0 (Windows NT 10.0; Win64; x64) AppleWebKit/537.36 (KHTML, like Gecko) Chrome/111.0.0.0 Safari/537.36" etag="kOKpRXCPE31sbRVGNnk_" version="21.1.5" type="github">
  <diagram name="Страница 1" id="ogQ0eSSQAR0u_Fnw1xYk">
    <mxGraphModel dx="989" dy="549" grid="1" gridSize="10" guides="1" tooltips="1" connect="1" arrows="1" fold="1" page="1" pageScale="1" pageWidth="827" pageHeight="1169" math="0" shadow="0">
      <root>
        <mxCell id="0" />
        <mxCell id="1" parent="0" />
        <mxCell id="sg4lnxpSO_NAkV_nTiJ3-8" value="Сайт" style="html=1;whiteSpace=wrap;" vertex="1" parent="1">
          <mxGeometry x="250" y="320" width="110" height="50" as="geometry" />
        </mxCell>
        <mxCell id="sg4lnxpSO_NAkV_nTiJ3-9" value="Пользователь" style="html=1;whiteSpace=wrap;" vertex="1" parent="1">
          <mxGeometry x="550" y="360" width="110" height="50" as="geometry" />
        </mxCell>
        <mxCell id="sg4lnxpSO_NAkV_nTiJ3-10" value="API" style="html=1;whiteSpace=wrap;" vertex="1" parent="1">
          <mxGeometry x="160" y="510" width="110" height="50" as="geometry" />
        </mxCell>
        <mxCell id="sg4lnxpSO_NAkV_nTiJ3-11" value="Система отзывов" style="html=1;whiteSpace=wrap;" vertex="1" parent="1">
          <mxGeometry x="320" y="720" width="110" height="50" as="geometry" />
        </mxCell>
        <mxCell id="sg4lnxpSO_NAkV_nTiJ3-12" value="База данных" style="html=1;whiteSpace=wrap;" vertex="1" parent="1">
          <mxGeometry x="30" y="640" width="110" height="50" as="geometry" />
        </mxCell>
        <mxCell id="sg4lnxpSO_NAkV_nTiJ3-18" value="" style="rounded=0;orthogonalLoop=1;jettySize=auto;html=1;endArrow=none;endFill=0;sketch=0;sourcePerimeterSpacing=0;targetPerimeterSpacing=0;exitX=1;exitY=0.5;exitDx=0;exitDy=0;" edge="1" target="sg4lnxpSO_NAkV_nTiJ3-20" parent="1" source="sg4lnxpSO_NAkV_nTiJ3-12">
          <mxGeometry relative="1" as="geometry">
            <mxPoint x="350" y="625" as="sourcePoint" />
          </mxGeometry>
        </mxCell>
        <mxCell id="sg4lnxpSO_NAkV_nTiJ3-19" value="" style="rounded=0;orthogonalLoop=1;jettySize=auto;html=1;endArrow=halfCircle;endFill=0;entryX=0.5;entryY=0.5;endSize=6;strokeWidth=1;sketch=0;exitX=0.5;exitY=0;exitDx=0;exitDy=0;" edge="1" target="sg4lnxpSO_NAkV_nTiJ3-20" parent="1" source="sg4lnxpSO_NAkV_nTiJ3-11">
          <mxGeometry relative="1" as="geometry">
            <mxPoint x="390" y="625" as="sourcePoint" />
          </mxGeometry>
        </mxCell>
        <mxCell id="sg4lnxpSO_NAkV_nTiJ3-20" value="" style="ellipse;whiteSpace=wrap;html=1;align=center;aspect=fixed;resizable=0;points=[];outlineConnect=0;sketch=0;" vertex="1" parent="1">
          <mxGeometry x="240" y="670" width="10" height="10" as="geometry" />
        </mxCell>
        <mxCell id="sg4lnxpSO_NAkV_nTiJ3-21" value="Отзыв" style="text;html=1;strokeColor=none;fillColor=none;align=center;verticalAlign=middle;whiteSpace=wrap;rounded=0;" vertex="1" parent="1">
          <mxGeometry x="220" y="650" width="60" height="30" as="geometry" />
        </mxCell>
        <mxCell id="sg4lnxpSO_NAkV_nTiJ3-22" value="Результат" style="html=1;whiteSpace=wrap;" vertex="1" parent="1">
          <mxGeometry x="340" y="510" width="110" height="50" as="geometry" />
        </mxCell>
        <mxCell id="sg4lnxpSO_NAkV_nTiJ3-23" value="" style="rounded=0;orthogonalLoop=1;jettySize=auto;html=1;endArrow=none;endFill=0;sketch=0;sourcePerimeterSpacing=0;targetPerimeterSpacing=0;exitX=1;exitY=0.5;exitDx=0;exitDy=0;" edge="1" target="sg4lnxpSO_NAkV_nTiJ3-25" parent="1" source="sg4lnxpSO_NAkV_nTiJ3-8">
          <mxGeometry relative="1" as="geometry">
            <mxPoint x="350" y="485" as="sourcePoint" />
          </mxGeometry>
        </mxCell>
        <mxCell id="sg4lnxpSO_NAkV_nTiJ3-24" value="" style="rounded=0;orthogonalLoop=1;jettySize=auto;html=1;endArrow=halfCircle;endFill=0;entryX=0.5;entryY=0.5;endSize=6;strokeWidth=1;sketch=0;exitX=0;exitY=0.5;exitDx=0;exitDy=0;" edge="1" target="sg4lnxpSO_NAkV_nTiJ3-25" parent="1" source="sg4lnxpSO_NAkV_nTiJ3-9">
          <mxGeometry relative="1" as="geometry">
            <mxPoint x="390" y="485" as="sourcePoint" />
          </mxGeometry>
        </mxCell>
        <mxCell id="sg4lnxpSO_NAkV_nTiJ3-25" value="" style="ellipse;whiteSpace=wrap;html=1;align=center;aspect=fixed;resizable=0;points=[];outlineConnect=0;sketch=0;" vertex="1" parent="1">
          <mxGeometry x="450" y="370" width="10" height="10" as="geometry" />
        </mxCell>
        <mxCell id="sg4lnxpSO_NAkV_nTiJ3-26" value="Выбор места" style="text;html=1;strokeColor=none;fillColor=none;align=center;verticalAlign=middle;whiteSpace=wrap;rounded=0;" vertex="1" parent="1">
          <mxGeometry x="430" y="330" width="60" height="30" as="geometry" />
        </mxCell>
        <mxCell id="sg4lnxpSO_NAkV_nTiJ3-27" value="" style="rounded=0;orthogonalLoop=1;jettySize=auto;html=1;endArrow=none;endFill=0;sketch=0;sourcePerimeterSpacing=0;targetPerimeterSpacing=0;exitX=1.015;exitY=0.379;exitDx=0;exitDy=0;exitPerimeter=0;" edge="1" target="sg4lnxpSO_NAkV_nTiJ3-29" parent="1" source="sg4lnxpSO_NAkV_nTiJ3-11">
          <mxGeometry relative="1" as="geometry">
            <mxPoint x="350" y="545" as="sourcePoint" />
          </mxGeometry>
        </mxCell>
        <mxCell id="sg4lnxpSO_NAkV_nTiJ3-28" value="" style="rounded=0;orthogonalLoop=1;jettySize=auto;html=1;endArrow=halfCircle;endFill=0;entryX=0.5;entryY=0.5;endSize=6;strokeWidth=1;sketch=0;exitX=0.435;exitY=1.02;exitDx=0;exitDy=0;exitPerimeter=0;" edge="1" target="sg4lnxpSO_NAkV_nTiJ3-29" parent="1" source="sg4lnxpSO_NAkV_nTiJ3-9">
          <mxGeometry relative="1" as="geometry">
            <mxPoint x="390" y="545" as="sourcePoint" />
          </mxGeometry>
        </mxCell>
        <mxCell id="sg4lnxpSO_NAkV_nTiJ3-29" value="" style="ellipse;whiteSpace=wrap;html=1;align=center;aspect=fixed;resizable=0;points=[];outlineConnect=0;sketch=0;" vertex="1" parent="1">
          <mxGeometry x="590" y="670" width="10" height="10" as="geometry" />
        </mxCell>
        <mxCell id="sg4lnxpSO_NAkV_nTiJ3-30" value="Отправка отзыва" style="text;html=1;strokeColor=none;fillColor=none;align=center;verticalAlign=middle;whiteSpace=wrap;rounded=0;" vertex="1" parent="1">
          <mxGeometry x="520" y="650" width="60" height="30" as="geometry" />
        </mxCell>
        <mxCell id="sg4lnxpSO_NAkV_nTiJ3-32" value="" style="rounded=0;orthogonalLoop=1;jettySize=auto;html=1;endArrow=none;endFill=0;sketch=0;sourcePerimeterSpacing=0;targetPerimeterSpacing=0;exitX=0.392;exitY=1.034;exitDx=0;exitDy=0;exitPerimeter=0;" edge="1" target="sg4lnxpSO_NAkV_nTiJ3-34" parent="1" source="sg4lnxpSO_NAkV_nTiJ3-8">
          <mxGeometry relative="1" as="geometry">
            <mxPoint x="350" y="535" as="sourcePoint" />
          </mxGeometry>
        </mxCell>
        <mxCell id="sg4lnxpSO_NAkV_nTiJ3-33" value="" style="rounded=0;orthogonalLoop=1;jettySize=auto;html=1;endArrow=halfCircle;endFill=0;entryX=0.5;entryY=0.5;endSize=6;strokeWidth=1;sketch=0;exitX=0.5;exitY=0;exitDx=0;exitDy=0;" edge="1" target="sg4lnxpSO_NAkV_nTiJ3-34" parent="1" source="sg4lnxpSO_NAkV_nTiJ3-10">
          <mxGeometry relative="1" as="geometry">
            <mxPoint x="390" y="535" as="sourcePoint" />
          </mxGeometry>
        </mxCell>
        <mxCell id="sg4lnxpSO_NAkV_nTiJ3-34" value="" style="ellipse;whiteSpace=wrap;html=1;align=center;aspect=fixed;resizable=0;points=[];outlineConnect=0;sketch=0;" vertex="1" parent="1">
          <mxGeometry x="250" y="430" width="10" height="10" as="geometry" />
        </mxCell>
        <mxCell id="sg4lnxpSO_NAkV_nTiJ3-35" value="Запросы" style="text;html=1;strokeColor=none;fillColor=none;align=center;verticalAlign=middle;whiteSpace=wrap;rounded=0;" vertex="1" parent="1">
          <mxGeometry x="190" y="420" width="60" height="30" as="geometry" />
        </mxCell>
        <mxCell id="sg4lnxpSO_NAkV_nTiJ3-36" value="" style="rounded=0;orthogonalLoop=1;jettySize=auto;html=1;endArrow=none;endFill=0;sketch=0;sourcePerimeterSpacing=0;targetPerimeterSpacing=0;exitX=0.5;exitY=0;exitDx=0;exitDy=0;" edge="1" target="sg4lnxpSO_NAkV_nTiJ3-38" parent="1" source="sg4lnxpSO_NAkV_nTiJ3-22">
          <mxGeometry relative="1" as="geometry">
            <mxPoint x="350" y="535" as="sourcePoint" />
          </mxGeometry>
        </mxCell>
        <mxCell id="sg4lnxpSO_NAkV_nTiJ3-37" value="" style="rounded=0;orthogonalLoop=1;jettySize=auto;html=1;endArrow=halfCircle;endFill=0;entryX=0.5;entryY=0.5;endSize=6;strokeWidth=1;sketch=0;exitX=0.75;exitY=1;exitDx=0;exitDy=0;" edge="1" target="sg4lnxpSO_NAkV_nTiJ3-38" parent="1" source="sg4lnxpSO_NAkV_nTiJ3-8">
          <mxGeometry relative="1" as="geometry">
            <mxPoint x="390" y="535" as="sourcePoint" />
          </mxGeometry>
        </mxCell>
        <mxCell id="sg4lnxpSO_NAkV_nTiJ3-38" value="" style="ellipse;whiteSpace=wrap;html=1;align=center;aspect=fixed;resizable=0;points=[];outlineConnect=0;sketch=0;" vertex="1" parent="1">
          <mxGeometry x="360" y="430" width="10" height="10" as="geometry" />
        </mxCell>
        <mxCell id="sg4lnxpSO_NAkV_nTiJ3-39" value="Данные от запросов" style="text;html=1;strokeColor=none;fillColor=none;align=center;verticalAlign=middle;whiteSpace=wrap;rounded=0;" vertex="1" parent="1">
          <mxGeometry x="370" y="420" width="60" height="30" as="geometry" />
        </mxCell>
      </root>
    </mxGraphModel>
  </diagram>
</mxfile>
